<svg width="44" height="38" viewBox="0 0 44 38" fill="none" xmlns="http://www.w3.org/2000/svg">
<path d="M32.8841 38H10.4972C4.71303 38 0 33.3556 0 27.6556V10.3444C0 4.64444 4.71303 0 10.4972 0H32.9377C38.6683 0 43.3813 4.64444 43.3813 10.3444V27.7083C43.3813 33.3556 38.6683 38 32.8841 38Z" fill="#1D1D1D"/>
<path d="M7.28418 4.53882H25.2794C28.9748 4.53882 31.7598 5.22493 33.6343 6.64993C35.5088 8.07493 36.4728 9.97493 36.4728 12.4555C36.4728 15.0944 35.241 17.1527 32.7238 18.5249C34.2234 19.3166 35.3481 20.161 36.0979 21.2166C36.8477 22.2194 37.2226 23.486 37.2226 25.0166C37.2226 27.3916 36.3657 29.2916 34.6519 30.7166C32.9381 32.1416 30.528 32.8277 27.3681 32.8277H7.28418V4.53882ZM20.0308 15.7277H20.3521C21.7446 15.7277 22.7086 15.5166 23.2978 15.0944C23.8869 14.6722 24.1547 13.986 24.1547 12.9305C24.1547 11.0833 23.03 10.186 20.7806 10.186H20.0308V15.7277ZM20.0308 20.4777V26.5999H20.4057C21.8517 26.5999 22.9229 26.3888 23.512 25.9666C24.1547 25.5444 24.4225 24.7527 24.4225 23.6972C24.4225 21.586 23.2442 20.5305 20.8877 20.5305H20.0308V20.4777Z" fill="white"/>
</svg>
